<svg width="208" height="64" viewBox="0 0 208 64" fill="none" xmlns="http://www.w3.org/2000/svg">
<mask id="path-1-inside-1" fill="white">
<path fill-rule="evenodd" clip-rule="evenodd" d="M12 0C9.79086 0 8 1.79086 8 4V19C15.1797 19 21 24.8203 21 32C21 39.1797 15.1797 45 8 45V60C8 62.2091 9.79086 64 12 64H204C206.209 64 208 62.2091 208 60V4C208 1.79086 206.209 0 204 0H12Z"/>
</mask>
<path fill-rule="evenodd" clip-rule="evenodd" d="M12 0C9.79086 0 8 1.79086 8 4V19C15.1797 19 21 24.8203 21 32C21 39.1797 15.1797 45 8 45V60C8 62.2091 9.79086 64 12 64H204C206.209 64 208 62.2091 208 60V4C208 1.79086 206.209 0 204 0H12Z" fill="#181818"/>
<path d="M8 19H7V20H8V19ZM8 45V44H7V45H8ZM9 4C9 2.34315 10.3431 1 12 1V-1C9.23858 -1 7 1.23858 7 4H9ZM9 19V4H7V19H9ZM8 20C14.6274 20 20 25.3726 20 32H22C22 24.268 15.732 18 8 18V20ZM20 32C20 38.6274 14.6274 44 8 44V46C15.732 46 22 39.732 22 32H20ZM9 60V45H7V60H9ZM12 63C10.3431 63 9 61.6569 9 60H7C7 62.7614 9.23857 65 12 65V63ZM204 63H12V65H204V63ZM207 60C207 61.6569 205.657 63 204 63V65C206.761 65 209 62.7614 209 60H207ZM207 4V60H209V4H207ZM204 1C205.657 1 207 2.34315 207 4H209C209 1.23858 206.761 -1 204 -1V1ZM12 1H204V-1H12V1Z" fill="#F8CE4C" fill-opacity="0.1" mask="url(#path-1-inside-1)"/>
<path d="M48.728 28.592L52.736 27.56V41H56.096V23.912L48.728 25.472V28.592ZM58.9091 36.68H63.9251V33.944H58.9091V36.68ZM64.4956 41H78.0316V37.832H71.0236L75.3436 33.704C76.0636 33.064 76.6396 32.352 77.0716 31.568C77.5036 30.784 77.7196 29.952 77.7196 29.072C77.7196 28.464 77.5916 27.856 77.3356 27.248C77.0956 26.64 76.7196 26.088 76.2076 25.592C75.7116 25.08 75.0796 24.672 74.3116 24.368C73.5596 24.048 72.6796 23.888 71.6716 23.888C70.3116 23.888 69.1596 24.176 68.2156 24.752C67.2716 25.312 66.5596 26.08 66.0796 27.056C65.6156 28.016 65.3836 29.096 65.3836 30.296H68.7676C68.7676 29.624 68.8796 29.032 69.1036 28.52C69.3276 28.008 69.6476 27.616 70.0636 27.344C70.4956 27.056 70.9996 26.912 71.5756 26.912C71.9916 26.912 72.3516 26.976 72.6556 27.104C72.9756 27.232 73.2476 27.416 73.4716 27.656C73.6956 27.88 73.8636 28.136 73.9756 28.424C74.0876 28.696 74.1436 28.976 74.1436 29.264C74.1436 29.712 74.0636 30.136 73.9036 30.536C73.7436 30.936 73.5116 31.336 73.2076 31.736C72.9196 32.136 72.5596 32.568 72.1276 33.032L64.4956 41ZM88.9687 36.392H97.6567V33.944H88.9687V36.392ZM96.1447 29.96V41H99.1687V29.96H96.1447ZM87.8407 29.96V41H90.8647V29.96H87.8407ZM103.287 36.152H113.175C113.207 35.976 113.223 35.824 113.223 35.696C113.223 35.552 113.223 35.432 113.223 35.336C113.223 34.168 112.991 33.168 112.527 32.336C112.079 31.504 111.423 30.864 110.559 30.416C109.711 29.952 108.679 29.72 107.463 29.72C106.343 29.72 105.367 29.912 104.535 30.296C103.719 30.68 103.063 31.216 102.567 31.904C102.071 32.592 101.743 33.392 101.583 34.304C101.551 34.496 101.527 34.688 101.511 34.88C101.495 35.072 101.487 35.272 101.487 35.48C101.487 36.584 101.727 37.576 102.207 38.456C102.687 39.32 103.367 40 104.247 40.496C105.143 40.992 106.215 41.24 107.463 41.24C108.487 41.24 109.351 41.112 110.055 40.856C110.775 40.584 111.383 40.216 111.879 39.752C112.375 39.288 112.807 38.744 113.175 38.12L110.439 37.256C110.247 37.592 110.007 37.88 109.719 38.12C109.431 38.36 109.095 38.544 108.711 38.672C108.343 38.8 107.927 38.864 107.463 38.864C106.919 38.864 106.431 38.744 105.999 38.504C105.583 38.264 105.247 37.896 104.991 37.4C104.751 36.904 104.631 36.264 104.631 35.48L104.679 34.832C104.679 34.224 104.799 33.704 105.039 33.272C105.279 32.824 105.599 32.488 105.999 32.264C106.415 32.04 106.887 31.928 107.415 31.928C107.911 31.928 108.335 32.024 108.687 32.216C109.039 32.392 109.303 32.656 109.479 33.008C109.671 33.36 109.799 33.776 109.863 34.256H103.287V36.152ZM121.067 33.992L123.899 40.28L126.995 39.752L121.067 29.12L115.187 39.752L118.259 40.28L121.067 33.992ZM125.387 41V43.16H128.339V38.456H113.819V43.16H116.915V41H125.387ZM132.022 36.152H141.91C141.942 35.976 141.958 35.824 141.958 35.696C141.958 35.552 141.958 35.432 141.958 35.336C141.958 34.168 141.726 33.168 141.262 32.336C140.814 31.504 140.158 30.864 139.294 30.416C138.446 29.952 137.414 29.72 136.198 29.72C135.078 29.72 134.102 29.912 133.27 30.296C132.454 30.68 131.798 31.216 131.302 31.904C130.806 32.592 130.478 33.392 130.318 34.304C130.286 34.496 130.262 34.688 130.246 34.88C130.23 35.072 130.222 35.272 130.222 35.48C130.222 36.584 130.462 37.576 130.942 38.456C131.422 39.32 132.102 40 132.982 40.496C133.878 40.992 134.95 41.24 136.198 41.24C137.222 41.24 138.086 41.112 138.79 40.856C139.51 40.584 140.118 40.216 140.614 39.752C141.11 39.288 141.542 38.744 141.91 38.12L139.174 37.256C138.982 37.592 138.742 37.88 138.454 38.12C138.166 38.36 137.83 38.544 137.446 38.672C137.078 38.8 136.662 38.864 136.198 38.864C135.654 38.864 135.166 38.744 134.734 38.504C134.318 38.264 133.982 37.896 133.726 37.4C133.486 36.904 133.366 36.264 133.366 35.48L133.414 34.832C133.414 34.224 133.534 33.704 133.774 33.272C134.014 32.824 134.334 32.488 134.734 32.264C135.15 32.04 135.622 31.928 136.15 31.928C136.646 31.928 137.07 32.024 137.422 32.216C137.774 32.392 138.038 32.656 138.214 33.008C138.406 33.36 138.534 33.776 138.598 34.256H132.022V36.152ZM155.365 29.96H144.781V36.536C144.781 37.224 144.605 37.672 144.253 37.88C143.917 38.088 143.509 38.192 143.029 38.192V41C144.213 41 145.149 40.864 145.837 40.592C146.541 40.304 147.045 39.88 147.349 39.32C147.653 38.744 147.805 38.024 147.805 37.16V32.816H152.341V41H155.365V29.96ZM161.57 41L164.93 35.768H161.882L158.306 41H161.57ZM168.866 41V29.96H165.722V41H168.866ZM166.85 34.712H163.778C163.426 34.712 163.13 34.672 162.89 34.592C162.65 34.512 162.466 34.392 162.338 34.232C162.21 34.072 162.146 33.864 162.146 33.608C162.146 33.352 162.21 33.144 162.338 32.984C162.466 32.808 162.65 32.68 162.89 32.6C163.13 32.52 163.426 32.48 163.778 32.48H166.85V29.96H163.394C162.642 29.96 161.93 30.072 161.258 30.296C160.602 30.52 160.066 30.888 159.65 31.4C159.25 31.896 159.05 32.552 159.05 33.368C159.05 34.184 159.25 34.856 159.65 35.384C160.066 35.912 160.602 36.304 161.258 36.56C161.93 36.8 162.642 36.92 163.394 36.92H166.85V34.712Z" fill="#F8CE4C"/>
<circle cx="8" cy="32" r="7.5" stroke="white"/>
</svg>
