<svg width="208" height="64" viewBox="0 0 208 64" fill="none" xmlns="http://www.w3.org/2000/svg">
<mask id="path-1-inside-1" fill="white">
<path fill-rule="evenodd" clip-rule="evenodd" d="M12 0C9.79086 0 8 1.79086 8 4V19C15.1797 19 21 24.8203 21 32C21 39.1797 15.1797 45 8 45V60C8 62.2091 9.79086 64 12 64H204C206.209 64 208 62.2091 208 60V4C208 1.79086 206.209 0 204 0H12Z"/>
</mask>
<path fill-rule="evenodd" clip-rule="evenodd" d="M12 0C9.79086 0 8 1.79086 8 4V19C15.1797 19 21 24.8203 21 32C21 39.1797 15.1797 45 8 45V60C8 62.2091 9.79086 64 12 64H204C206.209 64 208 62.2091 208 60V4C208 1.79086 206.209 0 204 0H12Z" fill="#181818"/>
<path d="M8 19H7V20H8V19ZM8 45V44H7V45H8ZM9 4C9 2.34315 10.3431 1 12 1V-1C9.23858 -1 7 1.23858 7 4H9ZM9 19V4H7V19H9ZM8 20C14.6274 20 20 25.3726 20 32H22C22 24.268 15.732 18 8 18V20ZM20 32C20 38.6274 14.6274 44 8 44V46C15.732 46 22 39.732 22 32H20ZM9 60V45H7V60H9ZM12 63C10.3431 63 9 61.6569 9 60H7C7 62.7614 9.23857 65 12 65V63ZM204 63H12V65H204V63ZM207 60C207 61.6569 205.657 63 204 63V65C206.761 65 209 62.7614 209 60H207ZM207 4V60H209V4H207ZM204 1C205.657 1 207 2.34315 207 4H209C209 1.23858 206.761 -1 204 -1V1ZM12 1H204V-1H12V1Z" fill="#F8CE4C" fill-opacity="0.1" mask="url(#path-1-inside-1)"/>
<path d="M47.72 27.416H55.76L49.04 41H52.76L60.824 24.2H47.72V27.416ZM61.0184 36.68H66.0344V33.944H61.0184V36.68ZM67.997 28.256C67.997 28.992 68.141 29.64 68.429 30.2C68.733 30.744 69.141 31.208 69.653 31.592C70.165 31.96 70.741 32.24 71.381 32.432C72.021 32.608 72.685 32.696 73.373 32.696C74.061 32.696 74.725 32.608 75.365 32.432C76.005 32.24 76.573 31.96 77.069 31.592C77.581 31.208 77.981 30.744 78.269 30.2C78.573 29.64 78.725 28.992 78.725 28.256C78.725 27.584 78.589 26.976 78.317 26.432C78.045 25.888 77.661 25.432 77.165 25.064C76.669 24.68 76.101 24.384 75.461 24.176C74.821 23.968 74.133 23.864 73.397 23.864C72.389 23.864 71.477 24.048 70.661 24.416C69.845 24.768 69.197 25.272 68.717 25.928C68.237 26.584 67.997 27.36 67.997 28.256ZM71.261 28.592C71.261 28.176 71.349 27.808 71.525 27.488C71.701 27.168 71.949 26.92 72.269 26.744C72.589 26.552 72.957 26.456 73.373 26.456C73.789 26.456 74.149 26.552 74.453 26.744C74.773 26.92 75.021 27.168 75.197 27.488C75.373 27.808 75.461 28.168 75.461 28.568C75.461 29 75.365 29.376 75.173 29.696C74.997 30.016 74.749 30.272 74.429 30.464C74.125 30.64 73.781 30.728 73.397 30.728C72.997 30.728 72.637 30.64 72.317 30.464C71.997 30.272 71.741 30.016 71.549 29.696C71.357 29.376 71.261 29.008 71.261 28.592ZM67.397 36.44C67.397 37.176 67.557 37.848 67.877 38.456C68.197 39.048 68.629 39.56 69.173 39.992C69.733 40.424 70.373 40.752 71.093 40.976C71.813 41.2 72.581 41.312 73.397 41.312C74.181 41.312 74.933 41.2 75.653 40.976C76.373 40.752 77.005 40.424 77.549 39.992C78.109 39.56 78.541 39.048 78.845 38.456C79.165 37.848 79.325 37.176 79.325 36.44C79.325 35.592 79.149 34.864 78.797 34.256C78.445 33.632 77.973 33.12 77.381 32.72C76.805 32.32 76.165 32.024 75.461 31.832C74.757 31.64 74.061 31.544 73.373 31.544C72.685 31.544 71.989 31.64 71.285 31.832C70.581 32.024 69.933 32.32 69.341 32.72C68.765 33.12 68.293 33.632 67.925 34.256C67.573 34.864 67.397 35.592 67.397 36.44ZM70.805 35.936C70.805 35.456 70.925 35.032 71.165 34.664C71.405 34.28 71.717 33.976 72.101 33.752C72.501 33.528 72.925 33.416 73.373 33.416C73.821 33.416 74.237 33.528 74.621 33.752C75.005 33.96 75.317 34.256 75.557 34.64C75.797 35.024 75.917 35.464 75.917 35.96C75.917 36.488 75.797 36.944 75.557 37.328C75.317 37.712 75.005 38.008 74.621 38.216C74.237 38.408 73.821 38.504 73.373 38.504C72.925 38.504 72.501 38.408 72.101 38.216C71.717 38.008 71.405 37.712 71.165 37.328C70.925 36.944 70.805 36.48 70.805 35.936ZM90.4218 36.392H99.1098V33.944H90.4218V36.392ZM97.5978 29.96V41H100.622V29.96H97.5978ZM89.2938 29.96V41H92.3178V29.96H89.2938ZM104.74 36.152H114.628C114.66 35.976 114.676 35.824 114.676 35.696C114.676 35.552 114.676 35.432 114.676 35.336C114.676 34.168 114.444 33.168 113.98 32.336C113.532 31.504 112.876 30.864 112.012 30.416C111.164 29.952 110.132 29.72 108.916 29.72C107.796 29.72 106.82 29.912 105.988 30.296C105.172 30.68 104.516 31.216 104.02 31.904C103.524 32.592 103.196 33.392 103.036 34.304C103.004 34.496 102.98 34.688 102.964 34.88C102.948 35.072 102.94 35.272 102.94 35.48C102.94 36.584 103.18 37.576 103.66 38.456C104.14 39.32 104.82 40 105.7 40.496C106.596 40.992 107.668 41.24 108.916 41.24C109.94 41.24 110.804 41.112 111.508 40.856C112.228 40.584 112.836 40.216 113.332 39.752C113.828 39.288 114.26 38.744 114.628 38.12L111.892 37.256C111.7 37.592 111.46 37.88 111.172 38.12C110.884 38.36 110.548 38.544 110.164 38.672C109.796 38.8 109.38 38.864 108.916 38.864C108.372 38.864 107.884 38.744 107.452 38.504C107.036 38.264 106.7 37.896 106.444 37.4C106.204 36.904 106.084 36.264 106.084 35.48L106.132 34.832C106.132 34.224 106.252 33.704 106.492 33.272C106.732 32.824 107.052 32.488 107.452 32.264C107.868 32.04 108.34 31.928 108.868 31.928C109.364 31.928 109.788 32.024 110.14 32.216C110.492 32.392 110.756 32.656 110.932 33.008C111.124 33.36 111.252 33.776 111.316 34.256H104.74V36.152ZM122.521 33.992L125.353 40.28L128.449 39.752L122.521 29.12L116.641 39.752L119.713 40.28L122.521 33.992ZM126.841 41V43.16H129.793V38.456H115.273V43.16H118.369V41H126.841ZM133.475 36.152H143.363C143.395 35.976 143.411 35.824 143.411 35.696C143.411 35.552 143.411 35.432 143.411 35.336C143.411 34.168 143.179 33.168 142.715 32.336C142.267 31.504 141.611 30.864 140.747 30.416C139.899 29.952 138.867 29.72 137.651 29.72C136.531 29.72 135.555 29.912 134.723 30.296C133.907 30.68 133.251 31.216 132.755 31.904C132.259 32.592 131.931 33.392 131.771 34.304C131.739 34.496 131.715 34.688 131.699 34.88C131.683 35.072 131.675 35.272 131.675 35.48C131.675 36.584 131.915 37.576 132.395 38.456C132.875 39.32 133.555 40 134.435 40.496C135.331 40.992 136.403 41.24 137.651 41.24C138.675 41.24 139.539 41.112 140.243 40.856C140.963 40.584 141.571 40.216 142.067 39.752C142.563 39.288 142.995 38.744 143.363 38.12L140.627 37.256C140.435 37.592 140.195 37.88 139.907 38.12C139.619 38.36 139.283 38.544 138.899 38.672C138.531 38.8 138.115 38.864 137.651 38.864C137.107 38.864 136.619 38.744 136.187 38.504C135.771 38.264 135.435 37.896 135.179 37.4C134.939 36.904 134.819 36.264 134.819 35.48L134.867 34.832C134.867 34.224 134.987 33.704 135.227 33.272C135.467 32.824 135.787 32.488 136.187 32.264C136.603 32.04 137.075 31.928 137.603 31.928C138.099 31.928 138.523 32.024 138.875 32.216C139.227 32.392 139.491 32.656 139.667 33.008C139.859 33.36 139.987 33.776 140.051 34.256H133.475V36.152ZM156.818 29.96H146.234V36.536C146.234 37.224 146.058 37.672 145.706 37.88C145.37 38.088 144.962 38.192 144.482 38.192V41C145.666 41 146.602 40.864 147.29 40.592C147.994 40.304 148.498 39.88 148.802 39.32C149.106 38.744 149.258 38.024 149.258 37.16V32.816H153.794V41H156.818V29.96ZM163.023 41L166.383 35.768H163.335L159.759 41H163.023ZM170.319 41V29.96H167.175V41H170.319ZM168.303 34.712H165.231C164.879 34.712 164.583 34.672 164.343 34.592C164.103 34.512 163.919 34.392 163.791 34.232C163.663 34.072 163.599 33.864 163.599 33.608C163.599 33.352 163.663 33.144 163.791 32.984C163.919 32.808 164.103 32.68 164.343 32.6C164.583 32.52 164.879 32.48 165.231 32.48H168.303V29.96H164.847C164.095 29.96 163.383 30.072 162.711 30.296C162.055 30.52 161.519 30.888 161.103 31.4C160.703 31.896 160.503 32.552 160.503 33.368C160.503 34.184 160.703 34.856 161.103 35.384C161.519 35.912 162.055 36.304 162.711 36.56C163.383 36.8 164.095 36.92 164.847 36.92H168.303V34.712Z" fill="#F8CE4C"/>
<circle cx="8" cy="32" r="7.5" stroke="white"/>
</svg>
