<svg width="208" height="64" viewBox="0 0 208 64" fill="none" xmlns="http://www.w3.org/2000/svg">
<mask id="path-1-inside-1" fill="white">
<path fill-rule="evenodd" clip-rule="evenodd" d="M12 0C9.79086 0 8 1.79086 8 4V19C15.1797 19 21 24.8203 21 32C21 39.1797 15.1797 45 8 45V60C8 62.2091 9.79086 64 12 64H204C206.209 64 208 62.2091 208 60V4C208 1.79086 206.209 0 204 0H12Z"/>
</mask>
<path fill-rule="evenodd" clip-rule="evenodd" d="M12 0C9.79086 0 8 1.79086 8 4V19C15.1797 19 21 24.8203 21 32C21 39.1797 15.1797 45 8 45V60C8 62.2091 9.79086 64 12 64H204C206.209 64 208 62.2091 208 60V4C208 1.79086 206.209 0 204 0H12Z" fill="#181818"/>
<path d="M8 19H7V20H8V19ZM8 45V44H7V45H8ZM9 4C9 2.34315 10.3431 1 12 1V-1C9.23858 -1 7 1.23858 7 4H9ZM9 19V4H7V19H9ZM8 20C14.6274 20 20 25.3726 20 32H22C22 24.268 15.732 18 8 18V20ZM20 32C20 38.6274 14.6274 44 8 44V46C15.732 46 22 39.732 22 32H20ZM9 60V45H7V60H9ZM12 63C10.3431 63 9 61.6569 9 60H7C7 62.7614 9.23857 65 12 65V63ZM204 63H12V65H204V63ZM207 60C207 61.6569 205.657 63 204 63V65C206.761 65 209 62.7614 209 60H207ZM207 4V60H209V4H207ZM204 1C205.657 1 207 2.34315 207 4H209C209 1.23858 206.761 -1 204 -1V1ZM12 1H204V-1H12V1Z" fill="#F8CE4C" fill-opacity="0.1" mask="url(#path-1-inside-1)"/>
<path d="M60.92 35.552C60.92 34.416 60.688 33.44 60.224 32.624C59.76 31.792 59.144 31.152 58.376 30.704C57.608 30.256 56.768 30.032 55.856 30.032C55.36 30.032 54.872 30.08 54.392 30.176C53.928 30.256 53.48 30.408 53.048 30.632L54.056 27.224H60.68V24.2H51.536L49.208 33.656C49.784 33.336 50.328 33.088 50.84 32.912C51.368 32.736 51.872 32.624 52.352 32.576C52.848 32.512 53.328 32.48 53.792 32.48C54.4 32.48 54.96 32.592 55.472 32.816C55.984 33.024 56.4 33.336 56.72 33.752C57.04 34.168 57.2 34.68 57.2 35.288C57.2 35.896 57.064 36.416 56.792 36.848C56.52 37.264 56.128 37.584 55.616 37.808C55.12 38.016 54.512 38.12 53.792 38.12C53.312 38.12 52.816 38.032 52.304 37.856C51.808 37.68 51.32 37.432 50.84 37.112C50.36 36.792 49.928 36.424 49.544 36.008L47.912 38.696C48.392 39.144 48.936 39.568 49.544 39.968C50.168 40.368 50.88 40.688 51.68 40.928C52.496 41.168 53.416 41.288 54.44 41.288C55.256 41.288 56.048 41.176 56.816 40.952C57.584 40.712 58.272 40.36 58.88 39.896C59.504 39.416 60 38.816 60.368 38.096C60.736 37.376 60.92 36.528 60.92 35.552ZM62.0028 36.68H67.0188V33.944H62.0028V36.68ZM71.6934 35.216C71.6934 34.592 71.8294 34.04 72.1014 33.56C72.3734 33.08 72.7414 32.704 73.2054 32.432C73.6854 32.16 74.2214 32.024 74.8134 32.024C75.4054 32.024 75.9334 32.16 76.3974 32.432C76.8614 32.704 77.2294 33.08 77.5014 33.56C77.7734 34.04 77.9094 34.592 77.9094 35.216C77.9094 35.84 77.7734 36.392 77.5014 36.872C77.2294 37.336 76.8614 37.704 76.3974 37.976C75.9334 38.232 75.4054 38.36 74.8134 38.36C74.2374 38.36 73.7094 38.232 73.2294 37.976C72.7494 37.704 72.3734 37.336 72.1014 36.872C71.8294 36.392 71.6934 35.84 71.6934 35.216ZM75.0774 24.248L69.9894 30.896C69.5094 31.488 69.1094 32.144 68.7894 32.864C68.4694 33.568 68.3094 34.352 68.3094 35.216C68.3094 36.528 68.5974 37.64 69.1734 38.552C69.7654 39.464 70.5494 40.152 71.5254 40.616C72.5174 41.08 73.6134 41.312 74.8134 41.312C76.0134 41.312 77.1014 41.08 78.0774 40.616C79.0694 40.152 79.8534 39.464 80.4294 38.552C81.0214 37.64 81.3174 36.528 81.3174 35.216C81.3174 34.384 81.1734 33.64 80.8854 32.984C80.5974 32.312 80.2054 31.736 79.7094 31.256C79.2294 30.776 78.6854 30.408 78.0774 30.152C77.4854 29.896 76.8534 29.768 76.1814 29.768C75.6054 29.768 75.1094 29.84 74.6934 29.984C74.2774 30.112 73.8614 30.384 73.4454 30.8L74.0694 30.584L79.4454 24.248H75.0774ZM92.3437 36.392H101.032V33.944H92.3437V36.392ZM99.5197 29.96V41H102.544V29.96H99.5197ZM91.2157 29.96V41H94.2397V29.96H91.2157ZM106.662 36.152H116.55C116.582 35.976 116.598 35.824 116.598 35.696C116.598 35.552 116.598 35.432 116.598 35.336C116.598 34.168 116.366 33.168 115.902 32.336C115.454 31.504 114.798 30.864 113.934 30.416C113.086 29.952 112.054 29.72 110.838 29.72C109.718 29.72 108.742 29.912 107.91 30.296C107.094 30.68 106.438 31.216 105.942 31.904C105.446 32.592 105.118 33.392 104.958 34.304C104.926 34.496 104.902 34.688 104.886 34.88C104.87 35.072 104.862 35.272 104.862 35.48C104.862 36.584 105.102 37.576 105.582 38.456C106.062 39.32 106.742 40 107.622 40.496C108.518 40.992 109.59 41.24 110.838 41.24C111.862 41.24 112.726 41.112 113.43 40.856C114.15 40.584 114.758 40.216 115.254 39.752C115.75 39.288 116.182 38.744 116.55 38.12L113.814 37.256C113.622 37.592 113.382 37.88 113.094 38.12C112.806 38.36 112.47 38.544 112.086 38.672C111.718 38.8 111.302 38.864 110.838 38.864C110.294 38.864 109.806 38.744 109.374 38.504C108.958 38.264 108.622 37.896 108.366 37.4C108.126 36.904 108.006 36.264 108.006 35.48L108.054 34.832C108.054 34.224 108.174 33.704 108.414 33.272C108.654 32.824 108.974 32.488 109.374 32.264C109.79 32.04 110.262 31.928 110.79 31.928C111.286 31.928 111.71 32.024 112.062 32.216C112.414 32.392 112.678 32.656 112.854 33.008C113.046 33.36 113.174 33.776 113.238 34.256H106.662V36.152ZM124.442 33.992L127.274 40.28L130.37 39.752L124.442 29.12L118.562 39.752L121.634 40.28L124.442 33.992ZM128.762 41V43.16H131.714V38.456H117.194V43.16H120.29V41H128.762ZM135.397 36.152H145.285C145.317 35.976 145.333 35.824 145.333 35.696C145.333 35.552 145.333 35.432 145.333 35.336C145.333 34.168 145.101 33.168 144.637 32.336C144.189 31.504 143.533 30.864 142.669 30.416C141.821 29.952 140.789 29.72 139.573 29.72C138.453 29.72 137.477 29.912 136.645 30.296C135.829 30.68 135.173 31.216 134.677 31.904C134.181 32.592 133.853 33.392 133.693 34.304C133.661 34.496 133.637 34.688 133.621 34.88C133.605 35.072 133.597 35.272 133.597 35.48C133.597 36.584 133.837 37.576 134.317 38.456C134.797 39.32 135.477 40 136.357 40.496C137.253 40.992 138.325 41.24 139.573 41.24C140.597 41.24 141.461 41.112 142.165 40.856C142.885 40.584 143.493 40.216 143.989 39.752C144.485 39.288 144.917 38.744 145.285 38.12L142.549 37.256C142.357 37.592 142.117 37.88 141.829 38.12C141.541 38.36 141.205 38.544 140.821 38.672C140.453 38.8 140.037 38.864 139.573 38.864C139.029 38.864 138.541 38.744 138.109 38.504C137.693 38.264 137.357 37.896 137.101 37.4C136.861 36.904 136.741 36.264 136.741 35.48L136.789 34.832C136.789 34.224 136.909 33.704 137.149 33.272C137.389 32.824 137.709 32.488 138.109 32.264C138.525 32.04 138.997 31.928 139.525 31.928C140.021 31.928 140.445 32.024 140.797 32.216C141.149 32.392 141.413 32.656 141.589 33.008C141.781 33.36 141.909 33.776 141.973 34.256H135.397V36.152ZM158.74 29.96H148.156V36.536C148.156 37.224 147.98 37.672 147.628 37.88C147.292 38.088 146.884 38.192 146.404 38.192V41C147.588 41 148.524 40.864 149.212 40.592C149.916 40.304 150.42 39.88 150.724 39.32C151.028 38.744 151.18 38.024 151.18 37.16V32.816H155.716V41H158.74V29.96ZM164.945 41L168.305 35.768H165.257L161.681 41H164.945ZM172.241 41V29.96H169.097V41H172.241ZM170.225 34.712H167.153C166.801 34.712 166.505 34.672 166.265 34.592C166.025 34.512 165.841 34.392 165.713 34.232C165.585 34.072 165.521 33.864 165.521 33.608C165.521 33.352 165.585 33.144 165.713 32.984C165.841 32.808 166.025 32.68 166.265 32.6C166.505 32.52 166.801 32.48 167.153 32.48H170.225V29.96H166.769C166.017 29.96 165.305 30.072 164.633 30.296C163.977 30.52 163.441 30.888 163.025 31.4C162.625 31.896 162.425 32.552 162.425 33.368C162.425 34.184 162.625 34.856 163.025 35.384C163.441 35.912 163.977 36.304 164.633 36.56C165.305 36.8 166.017 36.92 166.769 36.92H170.225V34.712Z" fill="#F8CE4C"/>
<circle cx="8" cy="32" r="7.5" stroke="white"/>
</svg>
