<svg width="208" height="64" viewBox="0 0 208 64" fill="none" xmlns="http://www.w3.org/2000/svg">
<mask id="path-1-inside-1" fill="white">
<path fill-rule="evenodd" clip-rule="evenodd" d="M12 0C9.79086 0 8 1.79086 8 4V19C15.1797 19 21 24.8203 21 32C21 39.1797 15.1797 45 8 45V60C8 62.2091 9.79086 64 12 64H204C206.209 64 208 62.2091 208 60V4C208 1.79086 206.209 0 204 0H12Z"/>
</mask>
<path fill-rule="evenodd" clip-rule="evenodd" d="M12 0C9.79086 0 8 1.79086 8 4V19C15.1797 19 21 24.8203 21 32C21 39.1797 15.1797 45 8 45V60C8 62.2091 9.79086 64 12 64H204C206.209 64 208 62.2091 208 60V4C208 1.79086 206.209 0 204 0H12Z" fill="#181818"/>
<path d="M8 19H7V20H8V19ZM8 45V44H7V45H8ZM9 4C9 2.34315 10.3431 1 12 1V-1C9.23858 -1 7 1.23858 7 4H9ZM9 19V4H7V19H9ZM8 20C14.6274 20 20 25.3726 20 32H22C22 24.268 15.732 18 8 18V20ZM20 32C20 38.6274 14.6274 44 8 44V46C15.732 46 22 39.732 22 32H20ZM9 60V45H7V60H9ZM12 63C10.3431 63 9 61.6569 9 60H7C7 62.7614 9.23857 65 12 65V63ZM204 63H12V65H204V63ZM207 60C207 61.6569 205.657 63 204 63V65C206.761 65 209 62.7614 209 60H207ZM207 4V60H209V4H207ZM204 1C205.657 1 207 2.34315 207 4H209C209 1.23858 206.761 -1 204 -1V1ZM12 1H204V-1H12V1Z" fill="#F8CE4C" fill-opacity="0.1" mask="url(#path-1-inside-1)"/>
<path d="M53.432 32.792C54.376 32.792 55.248 32.704 56.048 32.528C56.848 32.336 57.544 32.056 58.136 31.688C58.744 31.32 59.216 30.872 59.552 30.344C59.888 29.816 60.056 29.2 60.056 28.496C60.056 27.664 59.84 26.904 59.408 26.216C58.976 25.512 58.344 24.952 57.512 24.536C56.696 24.12 55.704 23.912 54.536 23.912C53.432 23.912 52.456 24.128 51.608 24.56C50.776 24.992 50.128 25.584 49.664 26.336C49.2 27.088 48.968 27.944 48.968 28.904H52.16C52.16 28.488 52.264 28.12 52.472 27.8C52.68 27.464 52.96 27.208 53.312 27.032C53.68 26.84 54.088 26.744 54.536 26.744C55 26.744 55.384 26.824 55.688 26.984C56.008 27.144 56.24 27.376 56.384 27.68C56.544 27.968 56.624 28.312 56.624 28.712C56.624 29.032 56.552 29.344 56.408 29.648C56.264 29.936 56.048 30.2 55.76 30.44C55.488 30.664 55.152 30.84 54.752 30.968C54.368 31.096 53.928 31.16 53.432 31.16V32.792ZM54.368 41.312C55.632 41.312 56.72 41.112 57.632 40.712C58.56 40.312 59.272 39.744 59.768 39.008C60.28 38.272 60.536 37.424 60.536 36.464C60.536 35.616 60.36 34.896 60.008 34.304C59.656 33.696 59.16 33.2 58.52 32.816C57.88 32.432 57.128 32.152 56.264 31.976C55.4 31.784 54.456 31.688 53.432 31.688V33.512C54.024 33.512 54.544 33.576 54.992 33.704C55.456 33.816 55.84 33.984 56.144 34.208C56.464 34.432 56.704 34.704 56.864 35.024C57.024 35.344 57.104 35.704 57.104 36.104C57.104 36.616 56.992 37.056 56.768 37.424C56.544 37.776 56.232 38.04 55.832 38.216C55.448 38.392 55 38.48 54.488 38.48C53.976 38.48 53.504 38.384 53.072 38.192C52.64 37.984 52.296 37.696 52.04 37.328C51.784 36.944 51.656 36.48 51.656 35.936H48.248C48.248 36.656 48.384 37.344 48.656 38C48.944 38.64 49.352 39.216 49.88 39.728C50.408 40.224 51.048 40.616 51.8 40.904C52.552 41.176 53.408 41.312 54.368 41.312ZM61.4638 36.68H66.4798V33.944H61.4638V36.68ZM66.9783 37.904H81.5703V34.952H78.1383L77.7303 35.336H71.7063L75.6903 29.672V36.512L75.3543 36.776V41H78.9303V24.2H76.5543L66.9783 37.904ZM92.3437 36.392H101.032V33.944H92.3437V36.392ZM99.5197 29.96V41H102.544V29.96H99.5197ZM91.2157 29.96V41H94.2397V29.96H91.2157ZM106.662 36.152H116.55C116.582 35.976 116.598 35.824 116.598 35.696C116.598 35.552 116.598 35.432 116.598 35.336C116.598 34.168 116.366 33.168 115.902 32.336C115.454 31.504 114.798 30.864 113.934 30.416C113.086 29.952 112.054 29.72 110.838 29.72C109.718 29.72 108.742 29.912 107.91 30.296C107.094 30.68 106.438 31.216 105.942 31.904C105.446 32.592 105.118 33.392 104.958 34.304C104.926 34.496 104.902 34.688 104.886 34.88C104.87 35.072 104.862 35.272 104.862 35.48C104.862 36.584 105.102 37.576 105.582 38.456C106.062 39.32 106.742 40 107.622 40.496C108.518 40.992 109.59 41.24 110.838 41.24C111.862 41.24 112.726 41.112 113.43 40.856C114.15 40.584 114.758 40.216 115.254 39.752C115.75 39.288 116.182 38.744 116.55 38.12L113.814 37.256C113.622 37.592 113.382 37.88 113.094 38.12C112.806 38.36 112.47 38.544 112.086 38.672C111.718 38.8 111.302 38.864 110.838 38.864C110.294 38.864 109.806 38.744 109.374 38.504C108.958 38.264 108.622 37.896 108.366 37.4C108.126 36.904 108.006 36.264 108.006 35.48L108.054 34.832C108.054 34.224 108.174 33.704 108.414 33.272C108.654 32.824 108.974 32.488 109.374 32.264C109.79 32.04 110.262 31.928 110.79 31.928C111.286 31.928 111.71 32.024 112.062 32.216C112.414 32.392 112.678 32.656 112.854 33.008C113.046 33.36 113.174 33.776 113.238 34.256H106.662V36.152ZM124.442 33.992L127.274 40.28L130.37 39.752L124.442 29.12L118.562 39.752L121.634 40.28L124.442 33.992ZM128.762 41V43.16H131.714V38.456H117.194V43.16H120.29V41H128.762ZM135.397 36.152H145.285C145.317 35.976 145.333 35.824 145.333 35.696C145.333 35.552 145.333 35.432 145.333 35.336C145.333 34.168 145.101 33.168 144.637 32.336C144.189 31.504 143.533 30.864 142.669 30.416C141.821 29.952 140.789 29.72 139.573 29.72C138.453 29.72 137.477 29.912 136.645 30.296C135.829 30.68 135.173 31.216 134.677 31.904C134.181 32.592 133.853 33.392 133.693 34.304C133.661 34.496 133.637 34.688 133.621 34.88C133.605 35.072 133.597 35.272 133.597 35.48C133.597 36.584 133.837 37.576 134.317 38.456C134.797 39.32 135.477 40 136.357 40.496C137.253 40.992 138.325 41.24 139.573 41.24C140.597 41.24 141.461 41.112 142.165 40.856C142.885 40.584 143.493 40.216 143.989 39.752C144.485 39.288 144.917 38.744 145.285 38.12L142.549 37.256C142.357 37.592 142.117 37.88 141.829 38.12C141.541 38.36 141.205 38.544 140.821 38.672C140.453 38.8 140.037 38.864 139.573 38.864C139.029 38.864 138.541 38.744 138.109 38.504C137.693 38.264 137.357 37.896 137.101 37.4C136.861 36.904 136.741 36.264 136.741 35.48L136.789 34.832C136.789 34.224 136.909 33.704 137.149 33.272C137.389 32.824 137.709 32.488 138.109 32.264C138.525 32.04 138.997 31.928 139.525 31.928C140.021 31.928 140.445 32.024 140.797 32.216C141.149 32.392 141.413 32.656 141.589 33.008C141.781 33.36 141.909 33.776 141.973 34.256H135.397V36.152ZM158.74 29.96H148.156V36.536C148.156 37.224 147.98 37.672 147.628 37.88C147.292 38.088 146.884 38.192 146.404 38.192V41C147.588 41 148.524 40.864 149.212 40.592C149.916 40.304 150.42 39.88 150.724 39.32C151.028 38.744 151.18 38.024 151.18 37.16V32.816H155.716V41H158.74V29.96ZM164.945 41L168.305 35.768H165.257L161.681 41H164.945ZM172.241 41V29.96H169.097V41H172.241ZM170.225 34.712H167.153C166.801 34.712 166.505 34.672 166.265 34.592C166.025 34.512 165.841 34.392 165.713 34.232C165.585 34.072 165.521 33.864 165.521 33.608C165.521 33.352 165.585 33.144 165.713 32.984C165.841 32.808 166.025 32.68 166.265 32.6C166.505 32.52 166.801 32.48 167.153 32.48H170.225V29.96H166.769C166.017 29.96 165.305 30.072 164.633 30.296C163.977 30.52 163.441 30.888 163.025 31.4C162.625 31.896 162.425 32.552 162.425 33.368C162.425 34.184 162.625 34.856 163.025 35.384C163.441 35.912 163.977 36.304 164.633 36.56C165.305 36.8 166.017 36.92 166.769 36.92H170.225V34.712Z" fill="#F8CE4C"/>
<circle cx="8" cy="32" r="7.5" stroke="white"/>
</svg>
